<svg width="22" height="23" viewBox="0 0 22 23" fill="none" xmlns="http://www.w3.org/2000/svg">
<path d="M17.7094 1.42944H4.29014C2.2651 1.42944 0.623474 3.07107 0.623474 5.09611V18.3637C0.623474 20.3887 2.2651 22.0303 4.29014 22.0303H17.7094C19.7345 22.0303 21.3761 20.3887 21.3761 18.3637V5.09611C21.3761 3.07107 19.7345 1.42944 17.7094 1.42944Z" fill="#D7403A"/>
<path fill-rule="evenodd" clip-rule="evenodd" d="M18.144 8.01885C18.144 7.73702 18.3725 7.50854 18.6544 7.50854C18.9361 7.50854 19.1647 7.73702 19.1647 8.01885V15.4412C19.1647 15.7231 18.9361 15.9515 18.6544 15.9515C18.3725 15.9515 18.144 15.7231 18.144 15.4412V8.01885Z" fill="white"/>
<path fill-rule="evenodd" clip-rule="evenodd" d="M4.36596 13.2494C5.21146 13.2494 5.89688 12.569 5.89688 11.7297C5.89688 10.8904 5.21146 10.21 4.36596 10.21C3.52044 10.21 2.83502 10.8904 2.83502 11.7297C2.83502 12.569 3.52044 13.2494 4.36596 13.2494Z" fill="white"/>
<path fill-rule="evenodd" clip-rule="evenodd" d="M9.469 13.2494C10.3144 13.2494 10.9999 12.569 10.9999 11.7297C10.9999 10.8904 10.3144 10.21 9.469 10.21C8.62347 10.21 7.93805 10.8904 7.93805 11.7297C7.93805 12.569 8.62347 13.2494 9.469 13.2494Z" fill="white"/>
<path fill-rule="evenodd" clip-rule="evenodd" d="M14.5717 13.2494C15.4172 13.2494 16.1026 12.569 16.1026 11.7297C16.1026 10.8904 15.4172 10.21 14.5717 10.21C13.7262 10.21 13.0408 10.8904 13.0408 11.7297C13.0408 12.569 13.7262 13.2494 14.5717 13.2494Z" fill="white"/>
</svg>
